HIERARCHY
ROOT hip
{
  OFFSET 0 0 0
  CHANNELS 6 Xposition Yposition Zposition Zrotation Yrotation Xrotation
  JOINT abdomen
  {
    OFFSET 0 20.6881 -0.73152
    CHANNELS 3 Zrotation Xrotation Yrotation
    JOINT chest
    {
      OFFSET 0 11.7043 -0.48768
      CHANNELS 3 Zrotation Xrotation Yrotation
      JOINT neck
      {
        OFFSET 0 22.1894 -2.19456
        CHANNELS 3 Zrotation Xrotation Yrotation
        JOINT head
        {
          OFFSET -0.24384 7.07133 1.2192
          CHANNELS 3 Zrotation Xrotation Yrotation
          JOINT leftEye
          {
            OFFSET 4.14528 8.04674 8.04672
            CHANNELS 3 Zrotation Xrotation Yrotation
            End Site
            {
              OFFSET 1 0 0
            }
          }
          JOINT rightEye
          {
            OFFSET -3.6576 8.04674 8.04672
            CHANNELS 3 Zrotation Xrotation Yrotation
            End Site
            {
              OFFSET 1 0 0
            }
          }
        }
      }
      JOINT rCollar
      {
        OFFSET -2.68224 19.2634 -4.8768
        CHANNELS 3 Zrotation Xrotation Yrotation
        JOINT rShldr
        {
          OFFSET -8.77824 -1.95073 1.46304
          CHANNELS 3 Zrotation Xrotation Yrotation
          JOINT rForeArm
          {
            OFFSET -28.1742 -1.7115 0.48768
            CHANNELS 3 Zrotation Xrotation Yrotation
            JOINT rHand
            {
              OFFSET -22.5879 0.773209 7.07136
              CHANNELS 3 Zrotation Xrotation Yrotation
              JOINT rThumb1
              {
                OFFSET -1.2192 -0.487915 3.41376
                CHANNELS 3 Zrotation Xrotation Yrotation
                JOINT rThumb2
                {
                  OFFSET -3.37035 -0.52449 3.41376
                  CHANNELS 3 Zrotation Xrotation Yrotation
                  End Site
                  {
                    OFFSET -1.78271 -1.18214 1.43049
                  }
                }
              }
              JOINT rIndex1
              {
                OFFSET -7.75947 0.938293 5.60832
                CHANNELS 3 Zrotation Xrotation Yrotation
                JOINT rIndex2
                {
                  OFFSET -2.54057 -0.884171 1.56538
                  CHANNELS 3 Zrotation Xrotation Yrotation
                  End Site
                  {
                    OFFSET -1.62519 -0.234802 1.16502
                  }
                }
              }
              JOINT rMid1
              {
                OFFSET -8.24714 1.18213 3.41376
                CHANNELS 3 Zrotation Xrotation Yrotation
                JOINT rMid2
                {
                  OFFSET -3.10165 -0.590103 1.0647
                  CHANNELS 3 Zrotation Xrotation Yrotation
                  End Site
                  {
                    OFFSET -2.48547 -0.328903 0.83742
                  }
                }
              }
              JOINT rRing1
              {
                OFFSET -8.82822 0.546677 1.51678
                CHANNELS 3 Zrotation Xrotation Yrotation
                JOINT rRing2
                {
                  OFFSET -2.60934 -0.819778 -0.0198488
                  CHANNELS 3 Zrotation Xrotation Yrotation
                  End Site
                  {
                    OFFSET -2.33842 -0.294052 0.168128
                  }
                }
              }
              JOINT rPinky1
              {
                OFFSET -8.27202 -0.0477905 -0.4584
                CHANNELS 3 Zrotation Xrotation Yrotation
                JOINT rPinky2
                {
                  OFFSET -1.82734 -0.647385 -0.700984
                  CHANNELS 3 Zrotation Xrotation Yrotation
                  End Site
                  {
                    OFFSET -1.69225 -0.51767 -0.607171
                  }
                }
              }
            }
          }
        }
      }
      JOINT lCollar
      {
        OFFSET 2.68224 19.2634 -4.8768
        CHANNELS 3 Zrotation Xrotation Yrotation
        JOINT lShldr
        {
          OFFSET 8.77824 -1.95073 1.46304
          CHANNELS 3 Zrotation Xrotation Yrotation
          JOINT lForeArm
          {
            OFFSET 28.1742 -1.7115 0.48768
            CHANNELS 3 Zrotation Xrotation Yrotation
            JOINT lHand
            {
              OFFSET 22.5879 0.773209 7.07136
              CHANNELS 3 Zrotation Xrotation Yrotation
              JOINT lThumb1
              {
                OFFSET 1.2192 -0.487915 3.41376
                CHANNELS 3 Zrotation Xrotation Yrotation
                JOINT lThumb2
                {
                  OFFSET 3.37035 -0.52449 3.41376
                  CHANNELS 3 Zrotation Xrotation Yrotation
                  End Site
                  {
                    OFFSET 1.78271 -1.18214 1.43049
                  }
                }
              }
              JOINT lIndex1
              {
                OFFSET 7.75947 0.938293 5.60832
                CHANNELS 3 Zrotation Xrotation Yrotation
                JOINT lIndex2
                {
                  OFFSET 2.54057 -0.884171 1.56538
                  CHANNELS 3 Zrotation Xrotation Yrotation
                  End Site
                  {
                    OFFSET 1.62519 -0.234802 1.16502
                  }
                }
              }
              JOINT lMid1
              {
                OFFSET 8.24714 1.18213 3.41376
                CHANNELS 3 Zrotation Xrotation Yrotation
                JOINT lMid2
                {
                  OFFSET 3.10165 -0.590103 1.0647
                  CHANNELS 3 Zrotation Xrotation Yrotation
                  End Site
                  {
                    OFFSET 2.48547 -0.328903 0.83742
                  }
                }
              }
              JOINT lRing1
              {
                OFFSET 8.82822 0.546677 1.51678
                CHANNELS 3 Zrotation Xrotation Yrotation
                JOINT lRing2
                {
                  OFFSET 2.60934 -0.819778 -0.0198488
                  CHANNELS 3 Zrotation Xrotation Yrotation
                  End Site
                  {
                    OFFSET 2.33842 -0.294052 0.168128
                  }
                }
              }
              JOINT lPinky1
              {
                OFFSET 8.27202 -0.0477905 -0.4584
                CHANNELS 3 Zrotation Xrotation Yrotation
                JOINT lPinky2
                {
                  OFFSET 1.82734 -0.647385 -0.700984
                  CHANNELS 3 Zrotation Xrotation Yrotation
                  End Site
                  {
                    OFFSET 1.69225 -0.51767 -0.607171
                  }
                }
              }
            }
          }
        }
      }
    }
  }
  JOINT rButtock
  {
    OFFSET -8.77824 4.35084 1.2192
    CHANNELS 3 Zrotation Xrotation Yrotation
    JOINT rThigh
    {
      OFFSET 0 -1.70687 -2.19456
      CHANNELS 3 Zrotation Xrotation Yrotation
      JOINT rShin
      {
        OFFSET 0 -36.8199 0.73152
        CHANNELS 3 Zrotation Xrotation Yrotation
        JOINT rFoot
        {
          OFFSET 0.73152 -45.1104 -5.12064
          CHANNELS 3 Zrotation Xrotation Yrotation
          End Site
          {
            OFFSET -1.1221 -3.69964 12.103
          }
        }
      }
    }
  }
  JOINT lButtock
  {
    OFFSET 8.77824 4.35084 1.2192
    CHANNELS 3 Zrotation Xrotation Yrotation
    JOINT lThigh
    {
      OFFSET 0 -1.70687 -2.19456
      CHANNELS 3 Zrotation Xrotation Yrotation
      JOINT lShin
      {
        OFFSET 0 -36.8199 0.73152
        CHANNELS 3 Zrotation Xrotation Yrotation
        JOINT lFoot
        {
          OFFSET -0.73152 -45.1104 -5.12064
          CHANNELS 3 Zrotation Xrotation Yrotation
          End Site
          {
            OFFSET 1.1221 -3.69964 12.103
          }
        }
      }
    }
  }
}
MOTION
Frames:	4
Frame Time:	0.03333
-0.3154760857574282 18.3114144383659 0.2435767120771138 -4.516169548034668 5.3923773765563965 9.160244941711426 -1.4800162315368652 13.07841682434082 5.595058917999268 2.7890257835388184 -9.7308931350708 0.6148877739906311 -6.596795558929443 16.25099754333496 -4.642129898071289 8.539105415344238 -26.492895126342773 -4.790261268615723 1.0511444807052612 -1.0844961404800415 -0.06492991000413895 -0.20702771842479706 0.3482593297958374 -0.9135729670524597 0.3933168351650238 -0.4760849177837372 0.548272430896759 45.87533950805664 36.80979537963867 15.218339920043945 -33.911502838134766 -31.217893600463867 60.91808319091797 -1.9089082479476929 -15.200881004333496 -0.04943835362792015 -0.380924254655838 -0.1013302281498909 0.982771098613739 -0.9339285492897034 -0.08851826936006546 1.1356121301651 -0.10544291138648987 -1.073445439338684 1.2718098163604736 7.681936264038086 7.522119998931885 1.129855751991272 0.9284754991531372 0.30378592014312744 0.20873625576496124 3.16369366645813 1.9161462783813477 -0.656050443649292 -1.3300586938858032 0.5914735794067383 0.7358974814414978 12.37766170501709 1.2072609663009644 0.8318021893501282 -1.3891596794128418 0.3100443184375763 -0.7376240491867065 2.5763328075408936 -1.9118292331695557 0.33067768812179565 1.4247914552688599 -0.21496541798114777 -0.1158866286277771 -51.69853210449219 41.04930877685547 -29.21326446533203 28.971031188964844 -29.726531982421875 -65.2811508178711 3.4254777431488037 -14.011080741882324 1.508642554283142 -1.207509994506836 0.2521761655807495 0.16270135343074799 0.4262984097003937 1.877051830291748 0.9699513912200928 -0.888803243637085 -0.010919695720076561 1.797523856163025 -6.535226345062256 5.937878131866455 -0.0962432399392128 -0.24581816792488098 0.49628183245658875 -0.6068286299705505 -2.8830978870391846 1.547312617301941 -0.6648691296577454 0.04889306798577309 1.027488350868225 -0.5674973726272583 -9.220680236816406 1.1711424589157104 0.11373113095760345 1.5662283897399902 0.4407116770744324 -0.3844992220401764 -1.8191713094711304 1.1312319040298462 0.43107861280441284 0.9769806265830994 -0.7738955616950989 0.14546000957489014 -31.791927337646484 -37.32883071899414 -28.371326446533203 -0.3809036314487457 65.28546905517578 2.5243163108825684 -5.059762954711914 -11.947270393371582 -8.382272720336914 -0.9885496497154236 0.16823844611644745 0.49288108944892883 34.257850646972656 -36.44841766357422 28.805843353271484 3.0750997066497803 64.18433380126953 -5.319611549377441 5.999566555023193 -12.091988563537598 13.111226081848145
-0.369424761803597 38.73724712299806 0.10886227639516065 -3.671231508255005 3.9907994270324707 5.554549217224121 -2.0050737857818604 15.772765159606934 3.775334358215332 2.6252613067626953 -10.131739616394043 1.2654410600662231 -4.7011590003967285 16.313858032226562 -2.5041773319244385 9.325353622436523 -26.62078857421875 -2.836214542388916 -0.17745189368724823 0.09161301702260971 -0.02863948605954647 0.11202219128608704 -0.07275213301181793 0.08062514662742615 -0.0489589087665081 0.04553389176726341 -0.08234784752130508 45.61031723022461 38.583091735839844 16.141868591308594 -29.962928771972656 -32.43299865722656 64.83016204833984 -1.7288209199905396 -12.453130722045898 -2.315688371658325 0.10187524557113647 0.014290345832705498 -0.18886980414390564 0.20130249857902527 0.10203135013580322 -0.14305803179740906 0.02677506022155285 0.14558051526546478 -0.2668481171131134 7.908865928649902 5.496349334716797 0.26406869292259216 -0.11800100654363632 -0.10214656591415405 -0.03186413645744324 3.224600315093994 0.8440704345703125 0.268851637840271 0.24653446674346924 -0.10252995043992996 -0.24359369277954102 10.23974895477295 0.7911937832832336 0.057804860174655914 0.13924682140350342 -0.0374595932662487 0.05333215370774269 2.335444688796997 -0.6001421809196472 -0.11716920882463455 -0.20098760724067688 -0.1698606014251709 0.020651845261454582 -51.23084259033203 38.279117584228516 -30.554227828979492 28.973602294921875 -30.183752059936523 -60.727500915527344 1.6811782121658325 -12.456348419189453 2.350020170211792 0.20415098965168 0.006627288646996021 -0.06456226110458374 -0.0819535031914711 -0.3997480571269989 -0.021987395361065865 0.2042856514453888 -0.027855461463332176 -0.379952609539032 -8.325833320617676 5.613543510437012 -0.5477265119552612 0.10690256953239441 -0.07214472442865372 0.17788991332054138 -3.01112961769104 1.0536179542541504 -0.12792368233203888 0.04759795963764191 -0.03190309554338455 0.02629818767309189 -10.979958534240723 0.6183336973190308 -0.04337979480624199 -0.1442737877368927 -0.08012300729751587 -0.06732466071844101 -2.481112003326416 -1.1245728731155396 0.1415160894393921 -0.15638603270053864 0.16968193650245667 0.026546532288193703 -28.502044677734375 -37.91880798339844 -23.97661018371582 -2.1272573471069336 65.8735580444336 3.01423716545105 -4.988474369049072 -10.982231140136719 -10.081377029418945 0.2091805636882782 0.057781562209129333 -0.12015817314386368 35.48815155029297 -38.16218566894531 29.060083389282227 2.2315876483917236 67.08424377441406 -3.345395088195801 4.695322513580322 -10.265382766723633 12.917068481445312
-0.6906898597694341 36.1792251656124 0.14766367393550395 -0.2899264097213745 12.223097801208496 4.027478218078613 -6.310681343078613 12.918336868286133 1.544142723083496 3.7306876182556152 -9.14987850189209 0.6599341630935669 -6.909152984619141 16.154037475585938 -7.1890869140625 10.064399719238281 -24.58099365234375 -12.579971313476562 -0.35905513167381287 -0.015154433436691761 0.42263540625572205 -0.09991151839494705 0.20386794209480286 0.1041768491268158 -0.3748144805431366 -0.39198464155197144 0.42644038796424866 48.80998992919922 27.32433319091797 17.017271041870117 -24.75394058227539 -25.76810073852539 52.22117233276367 -1.2452101707458496 -1.8040698766708374 0.055501941591501236 0.5786186456680298 0.35218364000320435 -0.016080524772405624 0.04432684928178787 0.19896695017814636 0.2289460301399231 0.01943417266011238 -0.4504247009754181 0.05557680502533913 7.632290363311768 5.930713176727295 0.38598504662513733 -0.15011630952358246 0.28992706537246704 -0.6880160570144653 2.598442792892456 0.8531589508056641 -0.28438854217529297 0.3719639182090759 -0.7714720368385315 0.20536527037620544 9.722173690795898 1.083892822265625 0.34221628308296204 0.16197021305561066 0.007368468213826418 0.44877997040748596 2.190326690673828 -0.36322760581970215 -0.6829537153244019 -0.5795534253120422 -0.0854789987206459 0.21329481899738312 -60.401004791259766 46.69245529174805 -18.57576560974121 26.094682693481445 -28.71307945251465 -55.64263153076172 1.0735231637954712 -17.757226943969727 2.1606173515319824 1.042586088180542 0.25028660893440247 0.09545259177684784 -0.12828761339187622 -0.10960513353347778 -0.06569040566682816 -0.27043765783309937 -0.014872029423713684 0.5106157064437866 -7.475104808807373 4.579867362976074 -0.4928496778011322 -0.2792608439922333 -0.12656360864639282 0.47708186507225037 -2.5232229232788086 1.0339391231536865 0.04266028478741646 -0.04884221777319908 0.19519326090812683 0.29884102940559387 -10.507131576538086 0.8303258419036865 0.5753204822540283 0.4098321497440338 -0.43185412883758545 0.17188991606235504 -2.3188254833221436 -0.8969560861587524 0.40025660395622253 -0.17972828447818756 -0.360810250043869 0.6161579489707947 -33.291446685791016 -45.81211853027344 -27.216623306274414 -0.7094623446464539 66.92655944824219 1.687570333480835 -1.6208796501159668 -5.695129871368408 -3.452653408050537 0.12393757700920105 0.03604159504175186 0.2603358328342438 20.324420928955078 -26.19696807861328 16.41350555419922 0.46244439482688904 55.42582702636719 -2.3483433723449707 8.727031707763672 -13.384289741516113 21.883682250976562
-0.8026226797224857 38.69276210093378 0.42483173659841644 1.9105651378631592 16.946250915527344 4.028478145599365 -12.261003494262695 11.044392585754395 -2.7698750495910645 6.721961498260498 -8.456184387207031 -0.0826433002948761 -9.099577903747559 18.26058578491211 -12.918542861938477 13.363615036010742 -23.103317260742188 -24.312711715698242 -0.5721239447593689 -0.23004935681819916 -0.040760695934295654 -0.6891382932662964 0.27700209617614746 0.2894514799118042 -0.5637595057487488 -0.9235008358955383 0.5352176427841187 54.167972564697266 20.823760986328125 13.185412406921387 -18.98410415649414 -13.821850776672363 35.643184661865234 -0.660020649433136 7.369403839111328 0.8433802127838135 0.8645603060722351 0.4228808283805847 0.5641474723815918 -0.3503822684288025 0.4005720913410187 0.47622019052505493 0.48611900210380554 -0.49873319268226624 0.6790207028388977 8.048830032348633 5.999041557312012 0.4350813627243042 0.21436116099357605 0.19251538813114166 -0.1283695250749588 2.634784460067749 1.0426546335220337 0.00269851996563375 -0.644371747970581 -1.0030076503753662 -0.2891278862953186 10.140746116638184 0.8436092138290405 -0.10340995341539383 -0.3333975374698639 0.28909724950790405 1.397025227546692 2.0335707664489746 -1.0891033411026 -1.3905925750732422 -0.165554016828537 0.22178016602993011 0.3623947501182556 -73.7837142944336 47.24940490722656 -3.2286221981048584 23.292375564575195 -21.212392807006836 -45.147457122802734 0.8343732357025146 -7.75056266784668 0.7574524283409119 0.5695526003837585 0.0736827552318573 0.2467658668756485 -0.3720771372318268 -0.03938606008887291 0.6065466403961182 -0.47200340032577515 0.5075340867042542 0.8440370559692383 -7.446650981903076 5.291345119476318 -0.1555587351322174 -0.06909351795911789 -0.6287510395050049 0.46171557903289795 -3.653995990753174 1.218659520149231 -0.29451215267181396 -0.34607481956481934 0.3160995841026306 1.0514023303985596 -10.738914489746094 0.8196401000022888 0.9233658313751221 0.7087017893791199 -0.7271384000778198 -0.40309008955955505 -2.63555908203125 -1.2067230939865112 0.4381389915943146 -0.04399200901389122 -0.6431983709335327 0.8899418115615845 -39.282283782958984 -55.170223236083984 -29.965002059936523 1.091712236404419 68.10867309570312 -0.17813503742218018 1.4936307668685913 -1.2890822887420654 5.720147609710693 -0.14823630452156067 0.7016347646713257 -0.13519872725009918 8.394318580627441 -6.2447075843811035 5.563197612762451 -0.8766651153564453 39.91364669799805 -1.683563470840454 11.920519828796387 -17.944740295410156 31.360586166381836
